<svg xmlns="http://www.w3.org/2000/svg" width="400" height="400" viewBox="0 0 400 400">
  <rect width="400" height="400" fill="#e8e6de"/>

  <line x1="60"  y1="90"  x2="180" y2="55"  stroke="#b8b6ae" stroke-width="1"/>
  <line x1="60"  y1="90"  x2="145" y2="195" stroke="#b8b6ae" stroke-width="1"/>
  <line x1="180" y1="55"  x2="310" y2="80"  stroke="#b8b6ae" stroke-width="1"/>
  <line x1="180" y1="55"  x2="255" y2="170" stroke="#b8b6ae" stroke-width="1"/>
  <line x1="310" y1="80"  x2="355" y2="190" stroke="#b8b6ae" stroke-width="1"/>
  <line x1="355" y1="190" x2="255" y2="170" stroke="#b8b6ae" stroke-width="1"/>
  <line x1="355" y1="190" x2="320" y2="305" stroke="#b8b6ae" stroke-width="1"/>
  <line x1="145" y1="195" x2="255" y2="170" stroke="#b8b6ae" stroke-width="1"/>
  <line x1="145" y1="195" x2="100" y2="310" stroke="#b8b6ae" stroke-width="1"/>
  <line x1="255" y1="170" x2="210" y2="300" stroke="#b8b6ae" stroke-width="1"/>
  <line x1="100" y1="310" x2="210" y2="300" stroke="#b8b6ae" stroke-width="1"/>
  <line x1="210" y1="300" x2="320" y2="305" stroke="#b8b6ae" stroke-width="1"/>
  <line x1="60"  y1="90"  x2="100" y2="310" stroke="#b8b6ae" stroke-width="1"/>
  <line x1="310" y1="80"  x2="255" y2="170" stroke="#b8b6ae" stroke-width="1"/>

  <circle cx="60"  cy="90"  r="3.5" fill="#a8a69e"/>
  <circle cx="180" cy="55"  r="3.5" fill="#a8a69e"/>
  <circle cx="310" cy="80"  r="3.5" fill="#a8a69e"/>
  <circle cx="355" cy="190" r="3.5" fill="#a8a69e"/>
  <circle cx="320" cy="305" r="3.5" fill="#a8a69e"/>
  <circle cx="210" cy="300" r="3.5" fill="#a8a69e"/>
  <circle cx="100" cy="310" r="3.5" fill="#a8a69e"/>
  <circle cx="145" cy="195" r="3.5" fill="#a8a69e"/>
  <circle cx="255" cy="170" r="3.5" fill="#a8a69e"/>
</svg>
