<?xml version="1.0" standalone="no"?>
<!DOCTYPE svg PUBLIC "-//W3C//DTD SVG 20010904//EN"
 "http://www.w3.org/TR/2001/REC-SVG-20010904/DTD/svg10.dtd">
<svg version="1.0" xmlns="http://www.w3.org/2000/svg"
 width="1254.000000pt" height="1254.000000pt" viewBox="0 0 1254.000000 1254.000000"
 preserveAspectRatio="xMidYMid meet">

<g transform="translate(0.000000,1254.000000) scale(0.100000,-0.100000)"
fill="#000000" stroke="none">
<path d="M3180 9726 c0 -3 26 -30 59 -61 107 -102 153 -224 171 -460 7 -97 10
-892 7 -2575 -3 -2207 -5 -2444 -20 -2530 -33 -192 -76 -287 -167 -375 l-59
-55 848 0 848 0 12 75 c28 172 32 182 656 1510 238 506 463 986 500 1068 l69
147 702 0 703 0 -53 108 c-29 59 -65 135 -81 169 l-28 63 -543 2 -543 3 285
600 c156 330 297 627 313 660 16 33 50 102 75 153 l45 93 39 -83 c62 -130 352
-737 432 -903 80 -166 68 -141 413 -865 134 -283 317 -666 405 -850 645 -1351
700 -1476 737 -1674 19 -102 14 -165 -19 -230 l-22 -44 42 -4 c23 -1 345 -2
715 0 l673 2 -54 37 c-84 56 -194 176 -275 298 -92 138 -171 291 -376 720 -89
187 -185 390 -214 450 -53 111 -239 498 -367 765 -39 80 -151 314 -250 520
-354 736 -427 889 -568 1180 -78 162 -182 378 -230 480 -48 102 -125 262 -170
355 -45 94 -106 220 -135 280 -29 61 -124 259 -212 440 -87 182 -178 374 -203
427 -25 53 -48 97 -51 98 -6 0 -32 -53 -352 -735 -135 -286 -329 -698 -432
-915 -103 -217 -252 -532 -330 -700 -79 -168 -170 -362 -203 -432 l-61 -128
-785 0 -786 0 0 1153 c0 763 4 1190 11 1262 22 217 72 348 170 446 l59 59
-700 0 c-385 0 -700 -2 -700 -4z m2570 -3260 c0 -6 -196 -425 -550 -1176 -650
-1377 -723 -1530 -732 -1530 -15 0 -70 123 -88 199 -37 149 -40 245 -40 1391
l0 1120 705 0 c388 0 705 -2 705 -4z"/>
</g>
</svg>
